<?xml version="1.0" encoding="UTF-8"?>
<svg width="100%" height="100%" viewBox="0 0 140 140" fill="none"
  preserveAspectRatio="xMidYMid meet"
  xmlns="http://www.w3.org/2000/svg"
  style="position:fixed;top:0;left:0;background:#0d1b2a;">
  <defs>
    <style>
      @import url('https://fonts.googleapis.com/css2?family=Changa:wght@800&amp;display=swap');
    </style>
    <linearGradient id="sLetterGrad" x1="30" y1="30" x2="110" y2="110" gradientUnits="userSpaceOnUse">
      <stop offset="0%" stop-color="#00c9d4"/>
      <stop offset="100%" stop-color="#c9a84c"/>
    </linearGradient>
    <linearGradient id="sWaveGrad" x1="20" y1="100" x2="120" y2="100" gradientUnits="userSpaceOnUse">
      <stop offset="0%"   stop-color="#00c9d4" stop-opacity="0"/>
      <stop offset="30%"  stop-color="#00c9d4"/>
      <stop offset="70%"  stop-color="#c9a84c"/>
      <stop offset="100%" stop-color="#c9a84c" stop-opacity="0"/>
    </linearGradient>
  </defs>
  <rect width="140" height="140" fill="#0d1b2a"/>
  <circle cx="70" cy="70" r="62" stroke="rgba(201,168,76,0.25)" stroke-width="1" fill="none" stroke-dasharray="6 4"/>
  <circle cx="70" cy="70" r="52" stroke="rgba(0,201,212,0.15)" stroke-width="0.8" fill="none"/>
  <text x="70" y="90" text-anchor="middle" font-family="Changa,sans-serif" font-size="58" font-weight="800" fill="url(#sLetterGrad)">د</text>
  <path d="M22 108 L38 108 L42 100 L47 116 L52 100 L57 116 L62 100 L67 116 L72 100 L77 108 L118 108"
    stroke="url(#sWaveGrad)" stroke-width="1.8" fill="none" stroke-linecap="round"/>
  <circle cx="72" cy="34" r="5" fill="#c9a84c"/>
  <line x1="72" y1="23" x2="72" y2="17" stroke="#c9a84c" stroke-width="1.5" stroke-linecap="round" opacity="0.9"/>
  <line x1="72" y1="45" x2="72" y2="51" stroke="#c9a84c" stroke-width="1.5" stroke-linecap="round" opacity="0.7"/>
  <line x1="61" y1="34" x2="55" y2="34" stroke="#c9a84c" stroke-width="1.5" stroke-linecap="round" opacity="0.9"/>
  <line x1="83" y1="34" x2="89" y2="34" stroke="#c9a84c" stroke-width="1" stroke-linecap="round" opacity="0.5"/>
  <line x1="64" y1="26" x2="60" y2="22" stroke="#c9a84c" stroke-width="1" stroke-linecap="round" opacity="0.7"/>
  <line x1="80" y1="26" x2="84" y2="22" stroke="#c9a84c" stroke-width="1" stroke-linecap="round" opacity="0.5"/>
  <circle cx="22" cy="108" r="2" fill="rgba(0,201,212,0.6)"/>
  <circle cx="118" cy="108" r="2" fill="rgba(201,168,76,0.6)"/>
</svg>
